<?xml version="1.0" encoding="us-ascii" standalone="no"?><svg xmlns="http://www.w3.org/2000/svg" xmlns:xlink="http://www.w3.org/1999/xlink" contentStyleType="text/css" height="598px" preserveAspectRatio="none" style="width:2936px;height:598px;background:#0B58A8;" version="1.1" viewBox="0 0 2936 598" width="2936px" zoomAndPan="magnify"><defs/><g><rect fill="#0B58A8" height="598" style="stroke:none;stroke-width:1.0;" width="2936" x="0" y="0"/><!--class Pessoa--><g id="elem_Pessoa"><rect codeLine="2" fill="#0B58A8" height="76.5938" id="Pessoa" rx="2.5" ry="2.5" style="stroke:#FFFFFF;stroke-width:1.0;" width="145" x="367" y="279.5"/><ellipse cx="411.25" cy="293.5" fill="#0B58A8" rx="9" ry="9" style="stroke:#FFFFFF;stroke-width:1.0;"/><path d="M413.5938,289.1719 C412.6563,288.7344 412.0625,288.5938 411.1875,288.5938 C408.5625,288.5938 406.5625,290.6719 406.5625,293.3906 L406.5625,294.5156 C406.5625,297.0938 408.6719,298.9844 411.5625,298.9844 C412.7813,298.9844 413.9375,298.6875 414.6875,298.1406 C415.2656,297.7344 415.5938,297.2813 415.5938,296.8906 C415.5938,296.4375 415.2031,296.0469 414.7344,296.0469 C414.5156,296.0469 414.3125,296.125 414.125,296.3125 C413.6719,296.7969 413.6719,296.7969 413.4844,296.8906 C413.0625,297.1563 412.375,297.2813 411.6094,297.2813 C409.5625,297.2813 408.2656,296.1875 408.2656,294.4844 L408.2656,293.3906 C408.2656,291.6094 409.5156,290.2969 411.25,290.2969 C411.8281,290.2969 412.4375,290.4531 412.9063,290.7031 C413.3906,290.9844 413.5625,291.2031 413.6563,291.6094 C413.7188,292.0156 413.75,292.1406 413.8906,292.2656 C414.0313,292.4063 414.2656,292.5156 414.4844,292.5156 C414.75,292.5156 415.0156,292.375 415.1875,292.1563 C415.2969,292 415.3281,291.8125 415.3281,291.3906 L415.3281,289.9688 C415.3281,289.5313 415.3125,289.4063 415.2188,289.25 C415.0625,288.9844 414.7813,288.8438 414.4844,288.8438 C414.1875,288.8438 413.9844,288.9375 413.7656,289.25 L413.5938,289.1719 Z " fill="#FFFFFF"/><text fill="#FFFFFF" font-family="Verdana" font-size="14" lengthAdjust="spacing" textLength="49" x="428.75" y="298.3467">Pessoa</text><line style="stroke:#FFFFFF;stroke-width:1.0;" x1="368" x2="511" y1="307.5" y2="307.5"/><rect fill="none" height="6" style="stroke:#FFFFFF;stroke-width:1.0;" width="6" x="375" y="318.1484"/><text fill="#FFFFFF" font-family="Verdana" font-size="14" lengthAdjust="spacing" textLength="94" x="385" y="324.4951">nome: String</text><rect fill="none" height="6" style="stroke:#FFFFFF;stroke-width:1.0;" width="6" x="375" y="334.4453"/><text fill="#FFFFFF" font-family="Verdana" font-size="14" lengthAdjust="spacing" textLength="121" x="385" y="340.792">endereco: String</text><line style="stroke:#FFFFFF;stroke-width:1.0;" x1="368" x2="511" y1="348.0938" y2="348.0938"/></g><!--class Cliente--><g id="elem_Cliente"><rect codeLine="7" fill="#0B58A8" height="92.8906" id="Cliente" rx="2.5" ry="2.5" style="stroke:#FFFFFF;stroke-width:1.0;" width="465" x="12" y="36.5"/><ellipse cx="214.75" cy="50.5" fill="#0B58A8" rx="9" ry="9" style="stroke:#FFFFFF;stroke-width:1.0;"/><path d="M217.0938,46.1719 C216.1563,45.7344 215.5625,45.5938 214.6875,45.5938 C212.0625,45.5938 210.0625,47.6719 210.0625,50.3906 L210.0625,51.5156 C210.0625,54.0938 212.1719,55.9844 215.0625,55.9844 C216.2813,55.9844 217.4375,55.6875 218.1875,55.1406 C218.7656,54.7344 219.0938,54.2813 219.0938,53.8906 C219.0938,53.4375 218.7031,53.0469 218.2344,53.0469 C218.0156,53.0469 217.8125,53.125 217.625,53.3125 C217.1719,53.7969 217.1719,53.7969 216.9844,53.8906 C216.5625,54.1563 215.875,54.2813 215.1094,54.2813 C213.0625,54.2813 211.7656,53.1875 211.7656,51.4844 L211.7656,50.3906 C211.7656,48.6094 213.0156,47.2969 214.75,47.2969 C215.3281,47.2969 215.9375,47.4531 216.4063,47.7031 C216.8906,47.9844 217.0625,48.2031 217.1563,48.6094 C217.2188,49.0156 217.25,49.1406 217.3906,49.2656 C217.5313,49.4063 217.7656,49.5156 217.9844,49.5156 C218.25,49.5156 218.5156,49.375 218.6875,49.1563 C218.7969,49 218.8281,48.8125 218.8281,48.3906 L218.8281,46.9688 C218.8281,46.5313 218.8125,46.4063 218.7188,46.25 C218.5625,45.9844 218.2813,45.8438 217.9844,45.8438 C217.6875,45.8438 217.4844,45.9375 217.2656,46.25 L217.0938,46.1719 Z " fill="#FFFFFF"/><text fill="#FFFFFF" font-family="Verdana" font-size="14" lengthAdjust="spacing" textLength="52" x="232.25" y="55.3467">Cliente</text><line style="stroke:#FFFFFF;stroke-width:1.0;" x1="13" x2="476" y1="64.5" y2="64.5"/><rect fill="none" height="6" style="stroke:#FFFFFF;stroke-width:1.0;" width="6" x="20" y="75.1484"/><text fill="#FFFFFF" font-family="Verdana" font-size="14" lengthAdjust="spacing" textLength="115" x="30" y="81.4951">telefone: String</text><line style="stroke:#FFFFFF;stroke-width:1.0;" x1="13" x2="476" y1="88.7969" y2="88.7969"/><ellipse cx="23" cy="102.4453" fill="#0B58A8" rx="3" ry="3" style="stroke:#FFFFFF;stroke-width:1.0;"/><text fill="#FFFFFF" font-family="Verdana" font-size="14" lengthAdjust="spacing" textLength="243" x="30" y="105.792">fazerPedido(pedido: Pedido): void</text><ellipse cx="23" cy="118.7422" fill="#0B58A8" rx="3" ry="3" style="stroke:#FFFFFF;stroke-width:1.0;"/><text fill="#FFFFFF" font-family="Verdana" font-size="14" lengthAdjust="spacing" textLength="441" x="30" y="122.0889">realizarPagamento(pedido: Pedido, valorPago: float): boolean</text></g><!--class Funcionario--><g id="elem_Funcionario"><rect codeLine="13" fill="#0B58A8" height="76.5938" id="Funcionario" rx="2.5" ry="2.5" style="stroke:#FFFFFF;stroke-width:1.0;" width="113" x="687" y="44.5"/><ellipse cx="701.35" cy="58.5" fill="#0B58A8" rx="9" ry="9" style="stroke:#FFFFFF;stroke-width:1.0;"/><path d="M703.6938,54.1719 C702.7563,53.7344 702.1625,53.5938 701.2875,53.5938 C698.6625,53.5938 696.6625,55.6719 696.6625,58.3906 L696.6625,59.5156 C696.6625,62.0938 698.7719,63.9844 701.6625,63.9844 C702.8813,63.9844 704.0375,63.6875 704.7875,63.1406 C705.3656,62.7344 705.6938,62.2813 705.6938,61.8906 C705.6938,61.4375 705.3031,61.0469 704.8344,61.0469 C704.6156,61.0469 704.4125,61.125 704.225,61.3125 C703.7719,61.7969 703.7719,61.7969 703.5844,61.8906 C703.1625,62.1563 702.475,62.2813 701.7094,62.2813 C699.6625,62.2813 698.3656,61.1875 698.3656,59.4844 L698.3656,58.3906 C698.3656,56.6094 699.6156,55.2969 701.35,55.2969 C701.9281,55.2969 702.5375,55.4531 703.0063,55.7031 C703.4906,55.9844 703.6625,56.2031 703.7563,56.6094 C703.8188,57.0156 703.85,57.1406 703.9906,57.2656 C704.1313,57.4063 704.3656,57.5156 704.5844,57.5156 C704.85,57.5156 705.1156,57.375 705.2875,57.1563 C705.3969,57 705.4281,56.8125 705.4281,56.3906 L705.4281,54.9688 C705.4281,54.5313 705.4125,54.4063 705.3188,54.25 C705.1625,53.9844 704.8813,53.8438 704.5844,53.8438 C704.2875,53.8438 704.0844,53.9375 703.8656,54.25 L703.6938,54.1719 Z " fill="#FFFFFF"/><text fill="#FFFFFF" font-family="Verdana" font-size="14" lengthAdjust="spacing" textLength="82" x="713.65" y="63.3467">Funcionario</text><line style="stroke:#FFFFFF;stroke-width:1.0;" x1="688" x2="799" y1="72.5" y2="72.5"/><rect fill="none" height="6" style="stroke:#FFFFFF;stroke-width:1.0;" width="6" x="695" y="83.1484"/><text fill="#FFFFFF" font-family="Verdana" font-size="14" lengthAdjust="spacing" textLength="77" x="705" y="89.4951">cpf: String</text><rect fill="none" height="6" style="stroke:#FFFFFF;stroke-width:1.0;" width="6" x="695" y="99.4453"/><text fill="#FFFFFF" font-family="Verdana" font-size="14" lengthAdjust="spacing" textLength="89" x="705" y="105.792">salario: float</text><line style="stroke:#FFFFFF;stroke-width:1.0;" x1="688" x2="799" y1="113.0938" y2="113.0938"/></g><!--class Cozinheiro--><g id="elem_Cozinheiro"><rect codeLine="18" fill="#0B58A8" height="76.5938" id="Cozinheiro" rx="2.5" ry="2.5" style="stroke:#FFFFFF;stroke-width:1.0;" width="293" x="547" y="279.5"/><ellipse cx="651.25" cy="293.5" fill="#0B58A8" rx="9" ry="9" style="stroke:#FFFFFF;stroke-width:1.0;"/><path d="M653.5938,289.1719 C652.6563,288.7344 652.0625,288.5938 651.1875,288.5938 C648.5625,288.5938 646.5625,290.6719 646.5625,293.3906 L646.5625,294.5156 C646.5625,297.0938 648.6719,298.9844 651.5625,298.9844 C652.7813,298.9844 653.9375,298.6875 654.6875,298.1406 C655.2656,297.7344 655.5938,297.2813 655.5938,296.8906 C655.5938,296.4375 655.2031,296.0469 654.7344,296.0469 C654.5156,296.0469 654.3125,296.125 654.125,296.3125 C653.6719,296.7969 653.6719,296.7969 653.4844,296.8906 C653.0625,297.1563 652.375,297.2813 651.6094,297.2813 C649.5625,297.2813 648.2656,296.1875 648.2656,294.4844 L648.2656,293.3906 C648.2656,291.6094 649.5156,290.2969 651.25,290.2969 C651.8281,290.2969 652.4375,290.4531 652.9063,290.7031 C653.3906,290.9844 653.5625,291.2031 653.6563,291.6094 C653.7188,292.0156 653.75,292.1406 653.8906,292.2656 C654.0313,292.4063 654.2656,292.5156 654.4844,292.5156 C654.75,292.5156 655.0156,292.375 655.1875,292.1563 C655.2969,292 655.3281,291.8125 655.3281,291.3906 L655.3281,289.9688 C655.3281,289.5313 655.3125,289.4063 655.2188,289.25 C655.0625,288.9844 654.7813,288.8438 654.4844,288.8438 C654.1875,288.8438 653.9844,288.9375 653.7656,289.25 L653.5938,289.1719 Z " fill="#FFFFFF"/><text fill="#FFFFFF" font-family="Verdana" font-size="14" lengthAdjust="spacing" textLength="77" x="668.75" y="298.3467">Cozinheiro</text><line style="stroke:#FFFFFF;stroke-width:1.0;" x1="548" x2="839" y1="307.5" y2="307.5"/><rect fill="none" height="6" style="stroke:#FFFFFF;stroke-width:1.0;" width="6" x="555" y="318.1484"/><text fill="#FFFFFF" font-family="Verdana" font-size="14" lengthAdjust="spacing" textLength="151" x="565" y="324.4951">especialidade: String</text><line style="stroke:#FFFFFF;stroke-width:1.0;" x1="548" x2="839" y1="331.7969" y2="331.7969"/><ellipse cx="558" cy="345.4453" fill="#0B58A8" rx="3" ry="3" style="stroke:#FFFFFF;stroke-width:1.0;"/><text fill="#FFFFFF" font-family="Verdana" font-size="14" lengthAdjust="spacing" textLength="269" x="565" y="348.792">prepararPedido(pedido: Pedido): void</text></g><!--class Garcom--><g id="elem_Garcom"><rect codeLine="23" fill="#0B58A8" height="60.2969" id="Garcom" rx="2.5" ry="2.5" style="stroke:#FFFFFF;stroke-width:1.0;" width="532" x="875.5" y="288"/><ellipse cx="1109.75" cy="302" fill="#0B58A8" rx="9" ry="9" style="stroke:#FFFFFF;stroke-width:1.0;"/><path d="M1112.0938,297.6719 C1111.1563,297.2344 1110.5625,297.0938 1109.6875,297.0938 C1107.0625,297.0938 1105.0625,299.1719 1105.0625,301.8906 L1105.0625,303.0156 C1105.0625,305.5938 1107.1719,307.4844 1110.0625,307.4844 C1111.2813,307.4844 1112.4375,307.1875 1113.1875,306.6406 C1113.7656,306.2344 1114.0938,305.7813 1114.0938,305.3906 C1114.0938,304.9375 1113.7031,304.5469 1113.2344,304.5469 C1113.0156,304.5469 1112.8125,304.625 1112.625,304.8125 C1112.1719,305.2969 1112.1719,305.2969 1111.9844,305.3906 C1111.5625,305.6563 1110.875,305.7813 1110.1094,305.7813 C1108.0625,305.7813 1106.7656,304.6875 1106.7656,302.9844 L1106.7656,301.8906 C1106.7656,300.1094 1108.0156,298.7969 1109.75,298.7969 C1110.3281,298.7969 1110.9375,298.9531 1111.4063,299.2031 C1111.8906,299.4844 1112.0625,299.7031 1112.1563,300.1094 C1112.2188,300.5156 1112.25,300.6406 1112.3906,300.7656 C1112.5313,300.9063 1112.7656,301.0156 1112.9844,301.0156 C1113.25,301.0156 1113.5156,300.875 1113.6875,300.6563 C1113.7969,300.5 1113.8281,300.3125 1113.8281,299.8906 L1113.8281,298.4688 C1113.8281,298.0313 1113.8125,297.9063 1113.7188,297.75 C1113.5625,297.4844 1113.2813,297.3438 1112.9844,297.3438 C1112.6875,297.3438 1112.4844,297.4375 1112.2656,297.75 L1112.0938,297.6719 Z " fill="#FFFFFF"/><text fill="#FFFFFF" font-family="Verdana" font-size="14" lengthAdjust="spacing" textLength="56" x="1127.25" y="306.8467">Garcom</text><line style="stroke:#FFFFFF;stroke-width:1.0;" x1="876.5" x2="1406.5" y1="316" y2="316"/><line style="stroke:#FFFFFF;stroke-width:1.0;" x1="876.5" x2="1406.5" y1="324" y2="324"/><ellipse cx="886.5" cy="337.6484" fill="#0B58A8" rx="3" ry="3" style="stroke:#FFFFFF;stroke-width:1.0;"/><text fill="#FFFFFF" font-family="Verdana" font-size="14" lengthAdjust="spacing" textLength="508" x="893.5" y="340.9951">anotarPedido(cliente: Cliente, itensPedido: List&lt;ItemPedido&gt;): Pedido</text></g><!--class Caixa--><g id="elem_Caixa"><rect codeLine="27" fill="#0B58A8" height="60.2969" id="Caixa" rx="2.5" ry="2.5" style="stroke:#FFFFFF;stroke-width:1.0;" width="482" x="1442.5" y="288"/><ellipse cx="1660.75" cy="302" fill="#0B58A8" rx="9" ry="9" style="stroke:#FFFFFF;stroke-width:1.0;"/><path d="M1663.0938,297.6719 C1662.1563,297.2344 1661.5625,297.0938 1660.6875,297.0938 C1658.0625,297.0938 1656.0625,299.1719 1656.0625,301.8906 L1656.0625,303.0156 C1656.0625,305.5938 1658.1719,307.4844 1661.0625,307.4844 C1662.2813,307.4844 1663.4375,307.1875 1664.1875,306.6406 C1664.7656,306.2344 1665.0938,305.7813 1665.0938,305.3906 C1665.0938,304.9375 1664.7031,304.5469 1664.2344,304.5469 C1664.0156,304.5469 1663.8125,304.625 1663.625,304.8125 C1663.1719,305.2969 1663.1719,305.2969 1662.9844,305.3906 C1662.5625,305.6563 1661.875,305.7813 1661.1094,305.7813 C1659.0625,305.7813 1657.7656,304.6875 1657.7656,302.9844 L1657.7656,301.8906 C1657.7656,300.1094 1659.0156,298.7969 1660.75,298.7969 C1661.3281,298.7969 1661.9375,298.9531 1662.4063,299.2031 C1662.8906,299.4844 1663.0625,299.7031 1663.1563,300.1094 C1663.2188,300.5156 1663.25,300.6406 1663.3906,300.7656 C1663.5313,300.9063 1663.7656,301.0156 1663.9844,301.0156 C1664.25,301.0156 1664.5156,300.875 1664.6875,300.6563 C1664.7969,300.5 1664.8281,300.3125 1664.8281,299.8906 L1664.8281,298.4688 C1664.8281,298.0313 1664.8125,297.9063 1664.7188,297.75 C1664.5625,297.4844 1664.2813,297.3438 1663.9844,297.3438 C1663.6875,297.3438 1663.4844,297.4375 1663.2656,297.75 L1663.0938,297.6719 Z " fill="#FFFFFF"/><text fill="#FFFFFF" font-family="Verdana" font-size="14" lengthAdjust="spacing" textLength="38" x="1678.25" y="306.8467">Caixa</text><line style="stroke:#FFFFFF;stroke-width:1.0;" x1="1443.5" x2="1923.5" y1="316" y2="316"/><line style="stroke:#FFFFFF;stroke-width:1.0;" x1="1443.5" x2="1923.5" y1="324" y2="324"/><ellipse cx="1453.5" cy="337.6484" fill="#0B58A8" rx="3" ry="3" style="stroke:#FFFFFF;stroke-width:1.0;"/><text fill="#FFFFFF" font-family="Verdana" font-size="14" lengthAdjust="spacing" textLength="458" x="1460.5" y="340.9951">processarPagamento(pedido: Pedido, valorPago: float): boolean</text></g><!--class Restaurante--><g id="elem_Restaurante"><rect codeLine="31" fill="#0B58A8" height="141.7813" id="Restaurante" rx="2.5" ry="2.5" style="stroke:#FFFFFF;stroke-width:1.0;" width="538" x="1414.5" y="12"/><ellipse cx="1635.75" cy="26" fill="#0B58A8" rx="9" ry="9" style="stroke:#FFFFFF;stroke-width:1.0;"/><path d="M1638.0938,21.6719 C1637.1563,21.2344 1636.5625,21.0938 1635.6875,21.0938 C1633.0625,21.0938 1631.0625,23.1719 1631.0625,25.8906 L1631.0625,27.0156 C1631.0625,29.5938 1633.1719,31.4844 1636.0625,31.4844 C1637.2813,31.4844 1638.4375,31.1875 1639.1875,30.6406 C1639.7656,30.2344 1640.0938,29.7813 1640.0938,29.3906 C1640.0938,28.9375 1639.7031,28.5469 1639.2344,28.5469 C1639.0156,28.5469 1638.8125,28.625 1638.625,28.8125 C1638.1719,29.2969 1638.1719,29.2969 1637.9844,29.3906 C1637.5625,29.6563 1636.875,29.7813 1636.1094,29.7813 C1634.0625,29.7813 1632.7656,28.6875 1632.7656,26.9844 L1632.7656,25.8906 C1632.7656,24.1094 1634.0156,22.7969 1635.75,22.7969 C1636.3281,22.7969 1636.9375,22.9531 1637.4063,23.2031 C1637.8906,23.4844 1638.0625,23.7031 1638.1563,24.1094 C1638.2188,24.5156 1638.25,24.6406 1638.3906,24.7656 C1638.5313,24.9063 1638.7656,25.0156 1638.9844,25.0156 C1639.25,25.0156 1639.5156,24.875 1639.6875,24.6563 C1639.7969,24.5 1639.8281,24.3125 1639.8281,23.8906 L1639.8281,22.4688 C1639.8281,22.0313 1639.8125,21.9063 1639.7188,21.75 C1639.5625,21.4844 1639.2813,21.3438 1638.9844,21.3438 C1638.6875,21.3438 1638.4844,21.4375 1638.2656,21.75 L1638.0938,21.6719 Z " fill="#FFFFFF"/><text fill="#FFFFFF" font-family="Verdana" font-size="14" lengthAdjust="spacing" textLength="88" x="1653.25" y="30.8467">Restaurante</text><line style="stroke:#FFFFFF;stroke-width:1.0;" x1="1415.5" x2="1951.5" y1="40" y2="40"/><rect fill="none" height="6" style="stroke:#FFFFFF;stroke-width:1.0;" width="6" x="1422.5" y="50.6484"/><text fill="#FFFFFF" font-family="Verdana" font-size="14" lengthAdjust="spacing" textLength="94" x="1432.5" y="56.9951">nome: String</text><rect fill="none" height="6" style="stroke:#FFFFFF;stroke-width:1.0;" width="6" x="1422.5" y="66.9453"/><text fill="#FFFFFF" font-family="Verdana" font-size="14" lengthAdjust="spacing" textLength="121" x="1432.5" y="73.292">endereco: String</text><rect fill="none" height="6" style="stroke:#FFFFFF;stroke-width:1.0;" width="6" x="1422.5" y="83.2422"/><text fill="#FFFFFF" font-family="Verdana" font-size="14" lengthAdjust="spacing" textLength="158" x="1432.5" y="89.5889">cardapio: List&lt;Prato&gt;</text><rect fill="none" height="6" style="stroke:#FFFFFF;stroke-width:1.0;" width="6" x="1422.5" y="99.5391"/><text fill="#FFFFFF" font-family="Verdana" font-size="14" lengthAdjust="spacing" textLength="125" x="1432.5" y="105.8857">estoque: Estoque</text><line style="stroke:#FFFFFF;stroke-width:1.0;" x1="1415.5" x2="1951.5" y1="113.1875" y2="113.1875"/><ellipse cx="1425.5" cy="126.8359" fill="#0B58A8" rx="3" ry="3" style="stroke:#FFFFFF;stroke-width:1.0;"/><text fill="#FFFFFF" font-family="Verdana" font-size="14" lengthAdjust="spacing" textLength="241" x="1432.5" y="130.1826">adicionarPrato(prato: Prato): void</text><ellipse cx="1425.5" cy="143.1328" fill="#0B58A8" rx="3" ry="3" style="stroke:#FFFFFF;stroke-width:1.0;"/><text fill="#FFFFFF" font-family="Verdana" font-size="14" lengthAdjust="spacing" textLength="514" x="1432.5" y="146.4795">realizarPedido(cliente: Cliente, itensPedido: List&lt;ItemPedido&gt;): Pedido</text></g><!--class Prato--><g id="elem_Prato"><rect codeLine="40" fill="#0B58A8" height="109.1875" id="Prato" rx="2.5" ry="2.5" style="stroke:#FFFFFF;stroke-width:1.0;" width="535" x="1960" y="263.5"/><ellipse cx="2204.25" cy="277.5" fill="#0B58A8" rx="9" ry="9" style="stroke:#FFFFFF;stroke-width:1.0;"/><path d="M2206.5938,273.1719 C2205.6563,272.7344 2205.0625,272.5938 2204.1875,272.5938 C2201.5625,272.5938 2199.5625,274.6719 2199.5625,277.3906 L2199.5625,278.5156 C2199.5625,281.0938 2201.6719,282.9844 2204.5625,282.9844 C2205.7813,282.9844 2206.9375,282.6875 2207.6875,282.1406 C2208.2656,281.7344 2208.5938,281.2813 2208.5938,280.8906 C2208.5938,280.4375 2208.2031,280.0469 2207.7344,280.0469 C2207.5156,280.0469 2207.3125,280.125 2207.125,280.3125 C2206.6719,280.7969 2206.6719,280.7969 2206.4844,280.8906 C2206.0625,281.1563 2205.375,281.2813 2204.6094,281.2813 C2202.5625,281.2813 2201.2656,280.1875 2201.2656,278.4844 L2201.2656,277.3906 C2201.2656,275.6094 2202.5156,274.2969 2204.25,274.2969 C2204.8281,274.2969 2205.4375,274.4531 2205.9063,274.7031 C2206.3906,274.9844 2206.5625,275.2031 2206.6563,275.6094 C2206.7188,276.0156 2206.75,276.1406 2206.8906,276.2656 C2207.0313,276.4063 2207.2656,276.5156 2207.4844,276.5156 C2207.75,276.5156 2208.0156,276.375 2208.1875,276.1563 C2208.2969,276 2208.3281,275.8125 2208.3281,275.3906 L2208.3281,273.9688 C2208.3281,273.5313 2208.3125,273.4063 2208.2188,273.25 C2208.0625,272.9844 2207.7813,272.8438 2207.4844,272.8438 C2207.1875,272.8438 2206.9844,272.9375 2206.7656,273.25 L2206.5938,273.1719 Z " fill="#FFFFFF"/><text fill="#FFFFFF" font-family="Verdana" font-size="14" lengthAdjust="spacing" textLength="39" x="2221.75" y="282.3467">Prato</text><line style="stroke:#FFFFFF;stroke-width:1.0;" x1="1961" x2="2494" y1="291.5" y2="291.5"/><rect fill="none" height="6" style="stroke:#FFFFFF;stroke-width:1.0;" width="6" x="1968" y="302.1484"/><text fill="#FFFFFF" font-family="Verdana" font-size="14" lengthAdjust="spacing" textLength="94" x="1978" y="308.4951">nome: String</text><rect fill="none" height="6" style="stroke:#FFFFFF;stroke-width:1.0;" width="6" x="1968" y="318.4453"/><text fill="#FFFFFF" font-family="Verdana" font-size="14" lengthAdjust="spacing" textLength="121" x="1978" y="324.792">descricao: String</text><rect fill="none" height="6" style="stroke:#FFFFFF;stroke-width:1.0;" width="6" x="1968" y="334.7422"/><text fill="#FFFFFF" font-family="Verdana" font-size="14" lengthAdjust="spacing" textLength="85" x="1978" y="341.0889">preco: float</text><line style="stroke:#FFFFFF;stroke-width:1.0;" x1="1961" x2="2494" y1="348.3906" y2="348.3906"/><ellipse cx="1971" cy="362.0391" fill="#0B58A8" rx="3" ry="3" style="stroke:#FFFFFF;stroke-width:1.0;"/><text fill="#FFFFFF" font-family="Verdana" font-size="14" lengthAdjust="spacing" textLength="511" x="1978" y="365.3857">contemIngrediente(ingrediente: Ingrediente, quantidade: int): boolean</text></g><!--class Estoque--><g id="elem_Estoque"><rect codeLine="47" fill="#0B58A8" height="92.8906" id="Estoque" rx="2.5" ry="2.5" style="stroke:#FFFFFF;stroke-width:1.0;" width="399" x="2530" y="271.5"/><ellipse cx="2696.75" cy="285.5" fill="#0B58A8" rx="9" ry="9" style="stroke:#FFFFFF;stroke-width:1.0;"/><path d="M2699.0938,281.1719 C2698.1563,280.7344 2697.5625,280.5938 2696.6875,280.5938 C2694.0625,280.5938 2692.0625,282.6719 2692.0625,285.3906 L2692.0625,286.5156 C2692.0625,289.0938 2694.1719,290.9844 2697.0625,290.9844 C2698.2813,290.9844 2699.4375,290.6875 2700.1875,290.1406 C2700.7656,289.7344 2701.0938,289.2813 2701.0938,288.8906 C2701.0938,288.4375 2700.7031,288.0469 2700.2344,288.0469 C2700.0156,288.0469 2699.8125,288.125 2699.625,288.3125 C2699.1719,288.7969 2699.1719,288.7969 2698.9844,288.8906 C2698.5625,289.1563 2697.875,289.2813 2697.1094,289.2813 C2695.0625,289.2813 2693.7656,288.1875 2693.7656,286.4844 L2693.7656,285.3906 C2693.7656,283.6094 2695.0156,282.2969 2696.75,282.2969 C2697.3281,282.2969 2697.9375,282.4531 2698.4063,282.7031 C2698.8906,282.9844 2699.0625,283.2031 2699.1563,283.6094 C2699.2188,284.0156 2699.25,284.1406 2699.3906,284.2656 C2699.5313,284.4063 2699.7656,284.5156 2699.9844,284.5156 C2700.25,284.5156 2700.5156,284.375 2700.6875,284.1563 C2700.7969,284 2700.8281,283.8125 2700.8281,283.3906 L2700.8281,281.9688 C2700.8281,281.5313 2700.8125,281.4063 2700.7188,281.25 C2700.5625,280.9844 2700.2813,280.8438 2699.9844,280.8438 C2699.6875,280.8438 2699.4844,280.9375 2699.2656,281.25 L2699.0938,281.1719 Z " fill="#FFFFFF"/><text fill="#FFFFFF" font-family="Verdana" font-size="14" lengthAdjust="spacing" textLength="58" x="2714.25" y="290.3467">Estoque</text><line style="stroke:#FFFFFF;stroke-width:1.0;" x1="2531" x2="2928" y1="299.5" y2="299.5"/><rect fill="none" height="6" style="stroke:#FFFFFF;stroke-width:1.0;" width="6" x="2538" y="310.1484"/><text fill="#FFFFFF" font-family="Verdana" font-size="14" lengthAdjust="spacing" textLength="232" x="2548" y="316.4951">ingredientes: List&lt;Ingrediente&gt;</text><line style="stroke:#FFFFFF;stroke-width:1.0;" x1="2531" x2="2928" y1="323.7969" y2="323.7969"/><ellipse cx="2541" cy="337.4453" fill="#0B58A8" rx="3" ry="3" style="stroke:#FFFFFF;stroke-width:1.0;"/><text fill="#FFFFFF" font-family="Verdana" font-size="14" lengthAdjust="spacing" textLength="375" x="2548" y="340.792">adicionarIngrediente(ingrediente: Ingrediente): void</text><ellipse cx="2541" cy="353.7422" fill="#0B58A8" rx="3" ry="3" style="stroke:#FFFFFF;stroke-width:1.0;"/><text fill="#FFFFFF" font-family="Verdana" font-size="14" lengthAdjust="spacing" textLength="357" x="2548" y="357.0889">verificarQuantidade(ingrediente: Ingrediente): int</text></g><!--class Ingrediente--><g id="elem_Ingrediente"><rect codeLine="53" fill="#0B58A8" height="92.8906" id="Ingrediente" rx="2.5" ry="2.5" style="stroke:#FFFFFF;stroke-width:1.0;" width="184" x="2283.5" y="490"/><ellipse cx="2329.75" cy="504" fill="#0B58A8" rx="9" ry="9" style="stroke:#FFFFFF;stroke-width:1.0;"/><path d="M2332.0938,499.6719 C2331.1563,499.2344 2330.5625,499.0938 2329.6875,499.0938 C2327.0625,499.0938 2325.0625,501.1719 2325.0625,503.8906 L2325.0625,505.0156 C2325.0625,507.5938 2327.1719,509.4844 2330.0625,509.4844 C2331.2813,509.4844 2332.4375,509.1875 2333.1875,508.6406 C2333.7656,508.2344 2334.0938,507.7813 2334.0938,507.3906 C2334.0938,506.9375 2333.7031,506.5469 2333.2344,506.5469 C2333.0156,506.5469 2332.8125,506.625 2332.625,506.8125 C2332.1719,507.2969 2332.1719,507.2969 2331.9844,507.3906 C2331.5625,507.6563 2330.875,507.7813 2330.1094,507.7813 C2328.0625,507.7813 2326.7656,506.6875 2326.7656,504.9844 L2326.7656,503.8906 C2326.7656,502.1094 2328.0156,500.7969 2329.75,500.7969 C2330.3281,500.7969 2330.9375,500.9531 2331.4063,501.2031 C2331.8906,501.4844 2332.0625,501.7031 2332.1563,502.1094 C2332.2188,502.5156 2332.25,502.6406 2332.3906,502.7656 C2332.5313,502.9063 2332.7656,503.0156 2332.9844,503.0156 C2333.25,503.0156 2333.5156,502.875 2333.6875,502.6563 C2333.7969,502.5 2333.8281,502.3125 2333.8281,501.8906 L2333.8281,500.4688 C2333.8281,500.0313 2333.8125,499.9063 2333.7188,499.75 C2333.5625,499.4844 2333.2813,499.3438 2332.9844,499.3438 C2332.6875,499.3438 2332.4844,499.4375 2332.2656,499.75 L2332.0938,499.6719 Z " fill="#FFFFFF"/><text fill="#FFFFFF" font-family="Verdana" font-size="14" lengthAdjust="spacing" textLength="84" x="2347.25" y="508.8467">Ingrediente</text><line style="stroke:#FFFFFF;stroke-width:1.0;" x1="2284.5" x2="2466.5" y1="518" y2="518"/><rect fill="none" height="6" style="stroke:#FFFFFF;stroke-width:1.0;" width="6" x="2291.5" y="528.6484"/><text fill="#FFFFFF" font-family="Verdana" font-size="14" lengthAdjust="spacing" textLength="94" x="2301.5" y="534.9951">nome: String</text><rect fill="none" height="6" style="stroke:#FFFFFF;stroke-width:1.0;" width="6" x="2291.5" y="544.9453"/><text fill="#FFFFFF" font-family="Verdana" font-size="14" lengthAdjust="spacing" textLength="109" x="2301.5" y="551.292">quantidade: int</text><rect fill="none" height="6" style="stroke:#FFFFFF;stroke-width:1.0;" width="6" x="2291.5" y="561.2422"/><text fill="#FFFFFF" font-family="Verdana" font-size="14" lengthAdjust="spacing" textLength="160" x="2301.5" y="567.5889">unidadeMedida: String</text><line style="stroke:#FFFFFF;stroke-width:1.0;" x1="2284.5" x2="2466.5" y1="574.8906" y2="574.8906"/></g><!--class Pedido--><g id="elem_Pedido"><rect codeLine="59" fill="#0B58A8" height="174.375" id="Pedido" rx="2.5" ry="2.5" style="stroke:#FFFFFF;stroke-width:1.0;" width="249" x="83" y="231"/><ellipse cx="179.25" cy="245" fill="#0B58A8" rx="9" ry="9" style="stroke:#FFFFFF;stroke-width:1.0;"/><path d="M181.5938,240.6719 C180.6563,240.2344 180.0625,240.0938 179.1875,240.0938 C176.5625,240.0938 174.5625,242.1719 174.5625,244.8906 L174.5625,246.0156 C174.5625,248.5938 176.6719,250.4844 179.5625,250.4844 C180.7813,250.4844 181.9375,250.1875 182.6875,249.6406 C183.2656,249.2344 183.5938,248.7813 183.5938,248.3906 C183.5938,247.9375 183.2031,247.5469 182.7344,247.5469 C182.5156,247.5469 182.3125,247.625 182.125,247.8125 C181.6719,248.2969 181.6719,248.2969 181.4844,248.3906 C181.0625,248.6563 180.375,248.7813 179.6094,248.7813 C177.5625,248.7813 176.2656,247.6875 176.2656,245.9844 L176.2656,244.8906 C176.2656,243.1094 177.5156,241.7969 179.25,241.7969 C179.8281,241.7969 180.4375,241.9531 180.9063,242.2031 C181.3906,242.4844 181.5625,242.7031 181.6563,243.1094 C181.7188,243.5156 181.75,243.6406 181.8906,243.7656 C182.0313,243.9063 182.2656,244.0156 182.4844,244.0156 C182.75,244.0156 183.0156,243.875 183.1875,243.6563 C183.2969,243.5 183.3281,243.3125 183.3281,242.8906 L183.3281,241.4688 C183.3281,241.0313 183.3125,240.9063 183.2188,240.75 C183.0625,240.4844 182.7813,240.3438 182.4844,240.3438 C182.1875,240.3438 181.9844,240.4375 181.7656,240.75 L181.5938,240.6719 Z " fill="#FFFFFF"/><text fill="#FFFFFF" font-family="Verdana" font-size="14" lengthAdjust="spacing" textLength="49" x="196.75" y="249.8467">Pedido</text><line style="stroke:#FFFFFF;stroke-width:1.0;" x1="84" x2="331" y1="259" y2="259"/><rect fill="none" height="6" style="stroke:#FFFFFF;stroke-width:1.0;" width="6" x="91" y="269.6484"/><text fill="#FFFFFF" font-family="Verdana" font-size="14" lengthAdjust="spacing" textLength="84" x="101" y="275.9951">numero: int</text><rect fill="none" height="6" style="stroke:#FFFFFF;stroke-width:1.0;" width="6" x="91" y="285.9453"/><text fill="#FFFFFF" font-family="Verdana" font-size="14" lengthAdjust="spacing" textLength="76" x="101" y="292.292">data: Date</text><rect fill="none" height="6" style="stroke:#FFFFFF;stroke-width:1.0;" width="6" x="91" y="302.2422"/><text fill="#FFFFFF" font-family="Verdana" font-size="14" lengthAdjust="spacing" textLength="111" x="101" y="308.5889">cliente: Cliente</text><rect fill="none" height="6" style="stroke:#FFFFFF;stroke-width:1.0;" width="6" x="91" y="318.5391"/><text fill="#FFFFFF" font-family="Verdana" font-size="14" lengthAdjust="spacing" textLength="225" x="101" y="324.8857">itensPedido: List&lt;ItemPedido&gt;</text><rect fill="none" height="6" style="stroke:#FFFFFF;stroke-width:1.0;" width="6" x="91" y="334.8359"/><text fill="#FFFFFF" font-family="Verdana" font-size="14" lengthAdjust="spacing" textLength="97" x="101" y="341.1826">status: String</text><line style="stroke:#FFFFFF;stroke-width:1.0;" x1="84" x2="331" y1="348.4844" y2="348.4844"/><ellipse cx="94" cy="362.1328" fill="#0B58A8" rx="3" ry="3" style="stroke:#FFFFFF;stroke-width:1.0;"/><text fill="#FFFFFF" font-family="Verdana" font-size="14" lengthAdjust="spacing" textLength="144" x="101" y="365.4795">calcularTotal(): float</text><ellipse cx="94" cy="378.4297" fill="#0B58A8" rx="3" ry="3" style="stroke:#FFFFFF;stroke-width:1.0;"/><text fill="#FFFFFF" font-family="Verdana" font-size="14" lengthAdjust="spacing" textLength="134" x="101" y="381.7764">getStatus(): String</text><ellipse cx="94" cy="394.7266" fill="#0B58A8" rx="3" ry="3" style="stroke:#FFFFFF;stroke-width:1.0;"/><text fill="#FFFFFF" font-family="Verdana" font-size="14" lengthAdjust="spacing" textLength="215" x="101" y="398.0732">setStatus(status: String): void</text></g><!--class StatusPedido--><g id="elem_StatusPedido"><rect codeLine="70" fill="#0B58A8" height="109.1875" id="StatusPedido" rx="2.5" ry="2.5" style="stroke:#FFFFFF;stroke-width:1.0;" width="180" x="21.5" y="482"/><ellipse cx="60.25" cy="496" fill="#0B58A8" rx="9" ry="9" style="stroke:#FFFFFF;stroke-width:1.0;"/><path d="M59.0469,496.875 L60.5,496.875 L60.5,496.9844 C60.5,497.3906 60.5313,497.5469 60.6094,497.7031 C60.7656,497.9531 61.0469,498.1094 61.3438,498.1094 C61.5938,498.1094 61.8594,497.9688 62.0156,497.75 C62.1406,497.5938 62.1719,497.4375 62.1719,496.9844 L62.1719,495.0625 C62.1719,494.9063 62.1719,494.8594 62.1563,494.7031 C62.0938,494.2344 61.7813,493.9219 61.3281,493.9219 C61.0781,493.9219 60.8125,494.0625 60.6406,494.2813 C60.5313,494.4531 60.5,494.6094 60.5,495.0625 L60.5,495.1875 L59.0469,495.1875 L59.0469,492.7813 L63.0313,492.7813 L63.0313,493.6406 C63.0313,494.0469 63.0625,494.2188 63.1406,494.375 C63.3125,494.625 63.5938,494.7813 63.875,494.7813 C64.1406,494.7813 64.4063,494.6406 64.5781,494.4219 C64.6875,494.25 64.7188,494.1094 64.7188,493.6406 L64.7188,491.0938 L57.0938,491.0938 C56.6563,491.0938 56.5313,491.1094 56.375,491.2031 C56.125,491.3594 55.9688,491.6563 55.9688,491.9375 C55.9688,492.2188 56.1094,492.4688 56.3281,492.6406 C56.4844,492.75 56.6719,492.7813 57.0938,492.7813 L57.3438,492.7813 L57.3438,499.2969 L57.0938,499.2969 C56.6875,499.2969 56.5313,499.3125 56.375,499.4219 C56.125,499.5938 55.9688,499.8594 55.9688,500.1563 C55.9688,500.4219 56.1094,500.6719 56.3281,500.8281 C56.4688,500.9531 56.7031,501 57.0938,501 L65.0938,501 L65.0938,498.4219 C65.0938,497.9844 65.0625,497.8438 64.9844,497.6875 C64.8125,497.4375 64.5313,497.2813 64.25,497.2813 C63.9844,497.2813 63.7188,497.3906 63.5469,497.6406 C63.4375,497.7969 63.4063,497.9375 63.4063,498.4219 L63.4063,499.2969 L59.0469,499.2969 L59.0469,496.875 Z " fill="#FFFFFF"/><text fill="#FFFFFF" font-family="Verdana" font-size="14" lengthAdjust="spacing" textLength="95" x="77.75" y="500.8467">StatusPedido</text><line style="stroke:#FFFFFF;stroke-width:1.0;" x1="22.5" x2="200.5" y1="510" y2="510"/><text fill="#FFFFFF" font-family="Verdana" font-size="14" lengthAdjust="spacing" textLength="96" x="27.5" y="526.9951">PedidoAceito</text><text fill="#FFFFFF" font-family="Verdana" font-size="14" lengthAdjust="spacing" textLength="168" x="27.5" y="543.292">PedidoSendoPreparado</text><text fill="#FFFFFF" font-family="Verdana" font-size="14" lengthAdjust="spacing" textLength="49" x="27.5" y="559.5889">Pronto</text><text fill="#FFFFFF" font-family="Verdana" font-size="14" lengthAdjust="spacing" textLength="84" x="27.5" y="575.8857">PedidoPago</text><line style="stroke:#FFFFFF;stroke-width:1.0;" x1="22.5" x2="200.5" y1="583.1875" y2="583.1875"/></g><!--class ItemPedido--><g id="elem_ItemPedido"><rect codeLine="77" fill="#0B58A8" height="76.5938" id="ItemPedido" rx="2.5" ry="2.5" style="stroke:#FFFFFF;stroke-width:1.0;" width="133" x="237" y="498"/><ellipse cx="259.9" cy="512" fill="#0B58A8" rx="9" ry="9" style="stroke:#FFFFFF;stroke-width:1.0;"/><path d="M262.2438,507.6719 C261.3063,507.2344 260.7125,507.0938 259.8375,507.0938 C257.2125,507.0938 255.2125,509.1719 255.2125,511.8906 L255.2125,513.0156 C255.2125,515.5938 257.3219,517.4844 260.2125,517.4844 C261.4313,517.4844 262.5875,517.1875 263.3375,516.6406 C263.9156,516.2344 264.2438,515.7813 264.2438,515.3906 C264.2438,514.9375 263.8531,514.5469 263.3844,514.5469 C263.1656,514.5469 262.9625,514.625 262.775,514.8125 C262.3219,515.2969 262.3219,515.2969 262.1344,515.3906 C261.7125,515.6563 261.025,515.7813 260.2594,515.7813 C258.2125,515.7813 256.9156,514.6875 256.9156,512.9844 L256.9156,511.8906 C256.9156,510.1094 258.1656,508.7969 259.9,508.7969 C260.4781,508.7969 261.0875,508.9531 261.5563,509.2031 C262.0406,509.4844 262.2125,509.7031 262.3063,510.1094 C262.3688,510.5156 262.4,510.6406 262.5406,510.7656 C262.6813,510.9063 262.9156,511.0156 263.1344,511.0156 C263.4,511.0156 263.6656,510.875 263.8375,510.6563 C263.9469,510.5 263.9781,510.3125 263.9781,509.8906 L263.9781,508.4688 C263.9781,508.0313 263.9625,507.9063 263.8688,507.75 C263.7125,507.4844 263.4313,507.3438 263.1344,507.3438 C262.8375,507.3438 262.6344,507.4375 262.4156,507.75 L262.2438,507.6719 Z " fill="#FFFFFF"/><text fill="#FFFFFF" font-family="Verdana" font-size="14" lengthAdjust="spacing" textLength="83" x="274.1" y="516.8467">ItemPedido</text><line style="stroke:#FFFFFF;stroke-width:1.0;" x1="238" x2="369" y1="526" y2="526"/><rect fill="none" height="6" style="stroke:#FFFFFF;stroke-width:1.0;" width="6" x="245" y="536.6484"/><text fill="#FFFFFF" font-family="Verdana" font-size="14" lengthAdjust="spacing" textLength="109" x="255" y="542.9951">quantidade: int</text><rect fill="none" height="6" style="stroke:#FFFFFF;stroke-width:1.0;" width="6" x="245" y="552.9453"/><text fill="#FFFFFF" font-family="Verdana" font-size="14" lengthAdjust="spacing" textLength="88" x="255" y="559.292">prato: Prato</text><line style="stroke:#FFFFFF;stroke-width:1.0;" x1="238" x2="369" y1="566.5938" y2="566.5938"/></g><!--link Restaurante to Prato--><g id="link_Restaurante_Prato"><path codeLine="82" d="M1847.09,154.066 C1928.91,189.112 2020.8746,228.4996 2096.6646,260.9626 " fill="none" id="Restaurante-to-Prato" style="stroke:#FFFFFF;stroke-width:1.0;"/><polygon fill="#FFFFFF" points="2102.18,263.325,2095.4819,256.1045,2097.5839,261.3563,2092.332,263.4583,2102.18,263.325" style="stroke:#FFFFFF;stroke-width:1.0;"/><text fill="#FFFFFF" font-family="Verdana" font-size="13" lengthAdjust="spacing" textLength="29" x="1956.5" y="197.0669">Tem</text></g><!--link Prato to Ingrediente--><g id="link_Prato_Ingrediente"><path codeLine="83" d="M2264.08,372.517 C2288.74,408.58 2317.5241,450.6877 2340.9541,484.9637 " fill="none" id="Prato-to-Ingrediente" style="stroke:#FFFFFF;stroke-width:1.0;"/><polygon fill="#FFFFFF" points="2344.34,489.917,2342.5633,480.2297,2341.5184,485.7892,2335.9589,484.7443,2344.34,489.917" style="stroke:#FFFFFF;stroke-width:1.0;"/><text fill="#FFFFFF" font-family="Verdana" font-size="13" lengthAdjust="spacing" textLength="51" x="2316.5" y="448.0669">Cont&#233;m</text></g><!--link Restaurante to Estoque--><g id="link_Restaurante_Estoque"><path codeLine="84" d="M1952.61,117.677 C2116.34,141.618 2328.64,178.844 2512.5,231 C2550.61,241.81 2585.6929,254.6416 2621.3829,269.1716 " fill="none" id="Restaurante-to-Estoque" style="stroke:#FFFFFF;stroke-width:1.0;"/><polygon fill="#FFFFFF" points="2626.94,271.434,2620.1126,264.3357,2622.3091,269.5487,2617.0961,271.7452,2626.94,271.434" style="stroke:#FFFFFF;stroke-width:1.0;"/><text fill="#FFFFFF" font-family="Verdana" font-size="13" lengthAdjust="spacing" textLength="57" x="2380.5" y="197.0669">Gerencia</text></g><!--link Cliente to Pessoa--><g id="link_Cliente_Pessoa"><path codeLine="85" d="M315.797,129.557 C336.479,145.089 357.929,163.71 374.5,184 C397.91,212.664 413.3775,245.5701 424.3315,273.7701 " fill="none" id="Cliente-to-Pessoa" style="stroke:#FFFFFF;stroke-width:1.0;"/><polygon fill="#FFFFFF" points="426.504,279.363,426.9738,269.5254,424.6936,274.7023,419.5167,272.422,426.504,279.363" style="stroke:#FFFFFF;stroke-width:1.0;"/></g><!--link Cliente to Pedido--><g id="link_Cliente_Pedido"><path codeLine="86" d="M224.934,129.97 C218.763,146.67 212.718,165.89 209.5,184 C206.834,199.006 205.6565,209.1201 205.0105,224.7651 " fill="none" id="Cliente-to-Pedido" style="stroke:#FFFFFF;stroke-width:1.0;"/><polygon fill="#FFFFFF" points="204.763,230.76,209.1309,221.9327,204.9693,225.7643,201.1377,221.6026,204.763,230.76" style="stroke:#FFFFFF;stroke-width:1.0;"/><text fill="#FFFFFF" font-family="Verdana" font-size="13" lengthAdjust="spacing" textLength="22" x="210.5" y="197.0669">Faz</text></g><!--link Cliente to Pedido--><g id="link_Cliente_Pedido"><path codeLine="87" d="M243.819,129.502 C242.974,151.249 241.193,177.583 237.5,201 C235.961,210.76 235.2668,215.036 233.0288,225.065 " fill="none" id="Cliente-to-Pedido-1" style="stroke:#FFFFFF;stroke-width:1.0;"/><polygon fill="#FFFFFF" points="231.722,230.921,237.5861,223.0082,232.811,226.041,229.7782,221.2659,231.722,230.921" style="stroke:#FFFFFF;stroke-width:1.0;"/><text fill="#FFFFFF" font-family="Verdana" font-size="13" lengthAdjust="spacing" textLength="124" x="241.5" y="197.0669">Realiza pagamento</text></g><!--link Pedido to Cliente--><g id="link_Pedido_Cliente"><path codeLine="88" d="M128.62,230.789 C122.677,215.499 121.396,199.504 128.5,184 C138.136,162.97 150.0545,148.5781 167.6195,133.6001 " fill="none" id="Pedido-to-Cliente" style="stroke:#FFFFFF;stroke-width:1.0;"/><polygon fill="#FFFFFF" points="172.185,129.707,162.7413,132.503,168.3804,132.9512,167.9321,138.5903,172.185,129.707" style="stroke:#FFFFFF;stroke-width:1.0;"/><text fill="#FFFFFF" font-family="Verdana" font-size="13" lengthAdjust="spacing" textLength="69" x="129.5" y="197.0669">Pertence a</text></g><!--link Pedido to ItemPedido--><g id="link_Pedido_ItemPedido"><path codeLine="89" d="M245.718,405.189 C259.992,437.381 273.0398,466.8061 284.3818,492.3839 " fill="none" id="Pedido-to-ItemPedido" style="stroke:#FFFFFF;stroke-width:1.0;"/><polygon fill="#FFFFFF" points="286.814,497.8688,286.8223,488.0199,284.7872,493.298,279.5091,491.2629,286.814,497.8688" style="stroke:#FFFFFF;stroke-width:1.0;"/><text fill="#FFFFFF" font-family="Verdana" font-size="13" lengthAdjust="spacing" textLength="86" x="265.5" y="448.0669">Cont&#233;m itens</text><text fill="#FFFFFF" font-family="Verdana" font-size="13" lengthAdjust="spacing" textLength="8" x="240.6586" y="425.3828">1</text><text fill="#FFFFFF" font-family="Verdana" font-size="13" lengthAdjust="spacing" textLength="23" x="258.9695" y="487.0535">0..*</text></g><!--link Pedido to StatusPedido--><g id="link_Pedido_StatusPedido"><path codeLine="90" d="M169.282,405.189 C157.831,431.013 148.0372,453.1021 137.7932,476.2041 " fill="none" id="Pedido-to-StatusPedido" style="stroke:#FFFFFF;stroke-width:1.0;"/><polygon fill="#FFFFFF" points="135.361,481.689,142.6659,475.083,137.3878,477.1182,135.3526,471.8401,135.361,481.689" style="stroke:#FFFFFF;stroke-width:1.0;"/><text fill="#FFFFFF" font-family="Verdana" font-size="13" lengthAdjust="spacing" textLength="85" x="155.5" y="448.0669">Possui status</text></g><!--link Estoque to Ingrediente--><g id="link_Estoque_Ingrediente"><path codeLine="91" d="M2654.86,364.65 C2594.61,401.495 2515.3786,449.9536 2455.1586,486.7826 " fill="none" id="Estoque-to-Ingrediente" style="stroke:#FFFFFF;stroke-width:1.0;"/><polygon fill="#FFFFFF" points="2450.04,489.913,2459.8049,488.6298,2454.3055,487.3043,2455.631,481.8049,2450.04,489.913" style="stroke:#FFFFFF;stroke-width:1.0;"/><text fill="#FFFFFF" font-family="Verdana" font-size="13" lengthAdjust="spacing" textLength="51" x="2531.5" y="448.0669">Cont&#233;m</text></g><!--link Restaurante to Garcom--><g id="link_Restaurante_Garcom"><path codeLine="92" d="M1520.51,154.066 C1416.23,198.895 1291.9523,252.3246 1214.4823,285.6246 " fill="none" id="Restaurante-to-Garcom" style="stroke:#FFFFFF;stroke-width:1.0;"/><polygon fill="#FFFFFF" points="1208.97,287.994,1218.8181,288.1147,1213.5636,286.0195,1215.6589,280.765,1208.97,287.994" style="stroke:#FFFFFF;stroke-width:1.0;"/><text fill="#FFFFFF" font-family="Verdana" font-size="13" lengthAdjust="spacing" textLength="29" x="1446.5" y="197.0669">Tem</text></g><!--link Restaurante to Caixa--><g id="link_Restaurante_Caixa"><path codeLine="93" d="M1683.5,154.224 C1683.5,198.978 1683.5,248.612 1683.5,281.885 " fill="none" id="Restaurante-to-Caixa" style="stroke:#FFFFFF;stroke-width:1.0;"/><polygon fill="#FFFFFF" points="1683.5,287.885,1687.5,278.885,1683.5,282.885,1679.5,278.885,1683.5,287.885" style="stroke:#FFFFFF;stroke-width:1.0;"/><text fill="#FFFFFF" font-family="Verdana" font-size="13" lengthAdjust="spacing" textLength="29" x="1684.5" y="197.0669">Tem</text></g><!--link Restaurante to Cozinheiro--><g id="link_Restaurante_Cozinheiro"><path codeLine="94" d="M1414.15,110.751 C1250.1,132.206 1038.04,169.252 857.5,231 C821.757,243.225 789.4919,259.3795 759.3979,276.4895 " fill="none" id="Restaurante-to-Cozinheiro" style="stroke:#FFFFFF;stroke-width:1.0;"/><polygon fill="#FFFFFF" points="754.182,279.455,763.9829,278.484,758.5286,276.9837,760.0289,271.5295,754.182,279.455" style="stroke:#FFFFFF;stroke-width:1.0;"/><text fill="#FFFFFF" font-family="Verdana" font-size="13" lengthAdjust="spacing" textLength="29" x="1012.5" y="197.0669">Tem</text></g><!--reverse link Funcionario to Cozinheiro--><g id="link_Funcionario_Cozinheiro"><path codeLine="95" d="M731.6345,139.2934 C722.3205,182.6984 710.887,235.978 701.577,279.36 " fill="none" id="Funcionario-backto-Cozinheiro" style="stroke:#FFFFFF;stroke-width:1.0;"/><polygon fill="none" points="735.411,121.694,725.768,138.0345,737.5009,140.5522,735.411,121.694" style="stroke:#FFFFFF;stroke-width:1.0;"/></g><!--reverse link Funcionario to Garcom--><g id="link_Funcionario_Garcom"><path codeLine="96" d="M782.937,135.5281 C803.376,160.7341 821.621,179.211 853.5,201 C910.24,239.781 981.9,268.707 1039.54,287.974 " fill="none" id="Funcionario-backto-Garcom" style="stroke:#FFFFFF;stroke-width:1.0;"/><polygon fill="none" points="771.6,121.547,778.2766,139.3071,787.5974,131.7491,771.6,121.547" style="stroke:#FFFFFF;stroke-width:1.0;"/></g><!--reverse link Funcionario to Caixa--><g id="link_Funcionario_Caixa"><path codeLine="97" d="M817.7632,97.2887 C935.1122,118.6437 1195.52,168.466 1424.5,231 C1485.17,247.57 1552.57,270.08 1603.4,287.915 " fill="none" id="Funcionario-backto-Caixa" style="stroke:#FFFFFF;stroke-width:1.0;"/><polygon fill="none" points="800.054,94.066,816.6889,103.1917,818.8374,91.3856,800.054,94.066" style="stroke:#FFFFFF;stroke-width:1.0;"/></g><!--link Funcionario to Pessoa--><g id="link_Funcionario_Pessoa"><path codeLine="98" d="M686.757,119.406 C642.571,147.814 580.401,189.646 529.5,231 C511.217,245.854 496.4683,259.4464 480.6423,274.9854 " fill="none" id="Funcionario-to-Pessoa" style="stroke:#FFFFFF;stroke-width:1.0;"/><polygon fill="#FFFFFF" points="476.361,279.189,485.5854,275.7377,479.9287,275.686,479.9805,270.0293,476.361,279.189" style="stroke:#FFFFFF;stroke-width:1.0;"/></g><!--SRC=[hLNRZjCm47tFLvW-jMoxWjTeLGa1kre9fBBT7nYSQTTIOcTjfq85FeZluCSOtnAdDrQ2bzQPcy-SkVYLVS866JHY2mMlmHYsGcCKiEy5OmicLOCbMrijvDOBK5QeaQjU-BE8VkzhWT9YTBHOuqR9tFcARM2FUeMLgDIqzNyb2v-paksKgBoLHgZ57lGAjj1Go4FRETj1hPoQH9jQWINlhqhL27A0Szj9BfG4BLI4nDlDA1K3jTF665aYQY_a4mgT7D6qo0M1gg0Q9zHgR473vPpwm7UWkMfyq2i6KjdUaGVkoaJYd0cBqgnYl4_2s9jxYqqGB6VfYWmqY6yGGxTQSIhYlpBuWCP2fs4ewj-xmVCCke9M9Dmh3LOj8v5MFNSKucCu128g4Ghb3QUj-oMWxkzaL_mlnlmDvnAhq70jE8mpQqEkeLySAAxewkPURZK5Tp2cOZYNB5FCsND7JCOM4l8auv6M22eBPL96WsWv9kyb678wTwZ5XXBKNtfOb_m8y00pKvtZxo1PB-ka5tnsTO3Z_H7gam9s3Mer-5PWoUK3M0mjTb3zmDUb1WWJRy5sPZJ176hUqHvuf6cifxEyk5kqQ-_Wn9cBwUNZUDcy8-5dmIXBAnpVSHHMzPzhcY6r2dkayc9DJJNetP1crFSPHQ9E4PsFa7FD1tcnMCREBzaZDaKuEsbULIAMGFp-rHpvfXOjsHrDFgrOADBYzw7zut4Wyd1BTWlxqug7CDgiJUkgY2fdbJpS06kgCAVNAkadRoVUPlBc-lhr92UdJo1qHHvmL1QAgepfH6oD8gNtSaBYKWzi7Yh3LZwZ6vwPO92_M3S_5elCubWNhZtXusuSYOUo_040]--></g></svg>